# This file uses meters as units for non-parametric coordinates.

mtllib kuusi.mtl
g default
v 102.719787 0.019884 -34.527915
v 87.378641 0.019884 -65.675988
v 63.484465 0.019791 -90.395283
v 33.375864 0.019791 -106.266033
v 0.000032 0.019791 -111.734649
v -33.375800 0.019791 -106.266017
v -63.484529 0.019791 -90.395267
v -87.378609 0.019884 -65.675988
v -102.719707 0.019884 -34.527905
v -108.005889 0.019884 0.000013
v -102.719707 0.019884 34.527928
v -87.378577 0.019884 65.676017
v -63.484257 0.019884 90.395258
v -33.375640 0.019884 106.266008
v 0.000032 0.019884 111.734690
v 33.375672 0.019884 106.265992
v 63.484273 0.019884 90.395258
v 87.378609 0.019884 65.676001
v 102.719691 0.019884 34.527907
v 108.005889 0.019884 0.000013
v 50.941400 102.872077 -17.123251
v 43.332937 102.872077 -32.570392
v 31.483661 102.872077 -44.829308
v 16.552079 102.872077 -52.699998
v 0.000032 102.872077 -55.412007
v -16.552207 102.872077 -52.699994
v -31.483581 102.872077 -44.829308
v -43.333193 102.872077 -32.570388
v -50.941192 102.872077 -17.123251
v -53.563188 102.872077 0.000004
v -50.941192 102.872077 17.123263
v -43.333209 102.872077 32.570386
v -31.483597 102.872077 44.829300
v -16.552207 102.872077 52.699969
v 0.000032 102.872077 55.411982
v 16.552047 102.872077 52.699961
v 31.483629 102.872077 44.829300
v 43.332906 102.872077 32.570381
v 50.941400 102.872077 17.123261
v 53.562596 102.872077 0.000004
v 0.000032 0.019791 0.000013
v 87.330934 102.872077 -29.355029
v 74.287432 102.872077 -55.836609
v 53.973792 102.872077 -76.852511
v 28.376096 102.872077 -90.345549
v 0.000240 102.872077 -94.994856
v -28.375904 102.872077 -90.345549
v -53.973216 102.872077 -76.852511
v -74.287464 102.872077 -55.836592
v -87.330151 102.872077 -29.355029
v -91.825133 102.872077 0.000010
v -87.330151 102.872077 29.355041
v -74.287464 102.872077 55.836588
v -53.973280 102.872077 76.852486
v -28.375872 102.872077 90.345558
v 0.000240 102.872077 94.994848
v 28.376032 102.872077 90.345491
v 53.973728 102.872077 76.852486
v 74.287400 102.872077 55.836584
v 87.330934 102.872077 29.355041
v 91.824542 102.872077 0.000010
v 37.162637 206.068695 -12.491744
v 31.612071 206.068695 -23.760702
v 22.967850 206.068695 -32.703804
v 12.075003 206.068695 -38.445637
v -0.000064 206.068695 -40.424122
v -12.075259 206.068695 -38.445625
v -22.967930 206.068695 -32.703804
v -31.612455 206.068695 -23.760702
v -37.162605 206.068695 -12.491744
v -39.075448 206.068695 0.000002
v -37.162605 206.068695 12.491735
v -31.612471 206.068695 23.760702
v -22.967962 206.068695 32.703781
v -12.075227 206.068695 38.445600
v -0.000064 206.068695 40.424098
v 12.074971 206.068695 38.445600
v 22.967818 206.068695 32.703781
v 31.612039 206.068695 23.760702
v 37.162637 206.068695 12.491735
v 39.074856 206.068695 0.000002
v 68.565609 206.068695 -23.047344
v 58.324791 206.068695 -43.838681
v 42.376124 206.068695 -60.338765
v 22.278730 206.068695 -70.932487
v 0.000128 206.068695 -74.582801
v -22.278698 206.068695 -70.932470
v -42.375757 206.068695 -60.338765
v -58.324967 206.068695 -43.838681
v -68.565050 206.068695 -23.047344
v -72.094234 206.068695 0.000007
v -68.565050 206.068695 23.047344
v -58.324999 206.068695 43.838656
v -42.375821 206.068695 60.338740
v -22.278634 206.068695 70.932462
v 0.000128 206.068695 74.582793
v 22.278666 206.068695 70.932462
v 42.376060 206.068695 60.338740
v 58.324727 206.068695 43.838656
v 68.565609 206.068695 23.047344
v 72.093674 206.068695 0.000007
v 1.850045 302.738287 -0.621970
v 1.573671 302.738287 -1.183059
v -0.000272 302.738287 -0.000004
v 1.143274 302.738287 -1.628310
v 0.600918 302.738287 -1.914176
v -0.000272 302.738287 -2.012701
v -0.601494 302.738287 -1.914176
v -1.143866 302.738287 -1.628310
v -1.574246 302.738287 -1.183059
v -1.850588 302.738287 -0.621970
v -1.945825 302.738287 -0.000004
v -1.850588 302.738287 0.621962
v -1.574246 302.738287 1.183050
v -1.143866 302.738287 1.628302
v -0.601494 302.738287 1.914168
v -0.000272 302.738287 2.012692
v 0.600918 302.738287 1.914168
v 1.143274 302.738287 1.628302
v 1.573671 302.738287 1.183050
v 1.850045 302.738287 0.621962
v 1.945281 302.738287 -0.000004
vt 0.087609 0.524505
vt 0.104396 0.524505
vt 0.086554 0.983751
vt 0.078229 0.983751
vt 0.117718 0.524504
vt 0.093161 0.983751
vt 0.126272 0.524504
vt 0.097402 0.983751
vt 0.129219 0.524504
vt 0.098864 0.983751
vt 0.126272 0.524504
vt 0.097402 0.983751
vt 0.117718 0.524504
vt 0.093161 0.983751
vt 0.095030 0.534754
vt 0.066849 0.534754
vt 0.051102 0.977567
vt 0.065078 0.977567
vt 0.104396 0.524505
vt 0.086554 0.983751
vt 0.087609 0.524505
vt 0.069000 0.524505
vt 0.069000 0.983751
vt 0.078229 0.983751
vt 0.050391 0.524505
vt 0.059772 0.983751
vt 0.033604 0.524505
vt 0.051446 0.983751
vt 0.087913 0.524671
vt 0.097639 0.524671
vt 0.112287 0.524671
vt 0.095614 0.524671
vt 0.105357 0.524671
vt 0.125519 0.524671
vt 0.110313 0.524671
vt 0.134015 0.524671
vt 0.112020 0.524671
vt 0.136942 0.524671
vt 0.110313 0.524671
vt 0.134015 0.524671
vt 0.105357 0.524671
vt 0.125519 0.524671
vt 0.097639 0.524671
vt 0.112287 0.524671
vt 0.087913 0.524671
vt 0.095614 0.524671
vt 0.077132 0.524671
vt 0.077132 0.524671
vt 0.066351 0.524671
vt 0.058650 0.524671
vt 0.056625 0.524671
vt 0.041976 0.524671
vt 0.048907 0.524671
vt 0.028745 0.524671
vt 0.043951 0.524671
vt 0.020249 0.524671
vt 0.128278 0.561852
vt 0.137952 0.580840
vt 0.073173 0.601888
vt 0.141286 0.601888
vt 0.113209 0.546783
vt 0.137952 0.622936
vt 0.094221 0.537108
vt 0.128278 0.641924
vt 0.073173 0.533775
vt 0.113209 0.656992
vt 0.052125 0.537109
vt 0.094221 0.666667
vt 0.033137 0.546783
vt 0.073173 0.670001
vt 0.018069 0.561852
vt 0.052125 0.666667
vt 0.008394 0.580840
vt 0.033137 0.656992
vt 0.005060 0.601888
vt 0.018069 0.641924
vt 0.008394 0.622936
vt 0.069569 0.992284
vt 0.070082 0.992284
vt 0.069000 0.992284
vt 0.070489 0.992284
vt 0.070750 0.992284
vt 0.070840 0.992284
vt 0.070750 0.992284
vt 0.070489 0.992284
vt 0.070082 0.992284
vt 0.069569 0.992284
vt 0.069000 0.992284
vt 0.068431 0.992284
vt 0.067918 0.992284
vt 0.067511 0.992284
vt 0.067250 0.992284
vt 0.067160 0.992284
vt 0.067250 0.992284
vt 0.067511 0.992284
vt 0.067918 0.992284
vt 0.068431 0.992284
vt 0.069000 0.992284
vt 0.080421 0.528169
vt 0.090723 0.528169
vt 0.109080 0.528169
vt 0.090071 0.528169
vt 0.098900 0.528169
vt 0.124165 0.528169
vt 0.104149 0.528169
vt 0.133851 0.528169
vt 0.105958 0.528169
vt 0.137188 0.528169
vt 0.104149 0.528169
vt 0.133851 0.528169
vt 0.098900 0.528169
vt 0.124165 0.528169
vt 0.090723 0.528169
vt 0.109080 0.528169
vt 0.080421 0.528169
vt 0.090071 0.528169
vt 0.069000 0.528169
vt 0.069000 0.528169
vt 0.042244 0.524671
vt 0.017322 0.524671
vt 0.043951 0.524671
vt 0.020249 0.524671
vt 0.048907 0.524671
vt 0.028745 0.524671
vt 0.056625 0.524671
vt 0.041976 0.524671
vt 0.066351 0.524671
vt 0.058650 0.524671
vt 0.077132 0.524671
vt 0.077132 0.524671
vt 0.101827 0.983584
vt 0.090115 0.983584
vt 0.111121 0.983584
vt 0.117089 0.983584
vt 0.119145 0.983584
vt 0.117089 0.983584
vt 0.111121 0.983584
vt 0.101827 0.983584
vt 0.090115 0.983584
vt 0.077132 0.983584
vt 0.064149 0.983584
vt 0.052437 0.983584
vt 0.043142 0.983584
vt 0.037175 0.983584
vt 0.035119 0.983584
vt 0.037175 0.983584
vt 0.043142 0.983584
vt 0.052437 0.983584
vt 0.064149 0.983584
vt 0.077132 0.983584
vt 0.020282 0.524505
vt 0.044839 0.983751
vt 0.011728 0.524505
vt 0.040597 0.983751
vt 0.008781 0.524505
vt 0.039136 0.983751
vt 0.011728 0.524505
vt 0.040597 0.983751
vt 0.057579 0.528169
vt 0.047929 0.528169
vt 0.047276 0.528169
vt 0.028920 0.528169
vt 0.039100 0.528169
vt 0.013835 0.528169
vt 0.033851 0.528169
vt 0.004149 0.528169
vt 0.032042 0.528169
vt 0.000812 0.528169
vt 0.033851 0.528169
vt 0.004149 0.528169
vt 0.039100 0.528169
vt 0.013835 0.528169
vt 0.047276 0.528169
vt 0.028920 0.528169
vt 0.057579 0.528169
vt 0.047929 0.528169
vt 0.069000 0.528169
vt 0.069000 0.528169
vt 0.020282 0.524505
vt 0.044839 0.983751
vt 0.033604 0.524505
vt 0.051446 0.983751
vt 0.050391 0.524505
vt 0.059772 0.983751
vt 0.069000 0.524505
vt 0.069000 0.983751
vn 0.842624 0.468984 -0.264649
vn 0.721441 0.472032 -0.506664
vn 0.721441 0.472032 -0.506664
vn 0.842624 0.468984 -0.264649
vn 0.528438 0.475886 -0.703055
vn 0.528439 0.475886 -0.703054
vn 0.279674 0.479072 -0.832029
vn 0.279674 0.479072 -0.832029
vn -0.000000 0.480306 -0.877101
vn -0.000000 0.480306 -0.877101
vn -0.279674 0.479072 -0.832029
vn -0.279674 0.479072 -0.832029
vn -0.528438 0.475885 -0.703055
vn -0.528438 0.475885 -0.703055
vn -0.721442 0.472033 -0.506662
vn -0.721442 0.472033 -0.506662
vn -0.842624 0.468982 -0.264652
vn -0.842624 0.468982 -0.264652
vn -0.883817 0.467833 0.000000
vn -0.883817 0.467833 -0.000000
vn -0.842624 0.468982 0.264652
vn -0.842624 0.468982 0.264652
vn -0.721441 0.472032 0.506664
vn -0.721442 0.472032 0.506663
vn -0.528437 0.475885 0.703056
vn -0.528438 0.475885 0.703056
vn -0.279674 0.479072 0.832029
vn -0.279675 0.479072 0.832029
vn 0.000000 0.480307 0.877100
vn 0.000000 0.480307 0.877100
vn 0.279675 0.479072 0.832029
vn 0.279675 0.479072 0.832029
vn 0.528438 0.475885 0.703055
vn 0.528438 0.475885 0.703055
vn 0.721441 0.472032 0.506664
vn 0.721441 0.472032 0.506665
vn 0.842624 0.468984 0.264649
vn 0.842624 0.468984 0.264649
vn 0.883817 0.467834 0.000001
vn 0.883817 0.467833 0.000001
vn 0.000002 -1.000000 0.000001
vn 0.000001 -1.000000 -0.000000
vn 0.000000 -1.000000 0.000000
vn 0.000001 -1.000000 0.000001
vn 0.000000 -1.000000 0.000000
vn 0.000000 -1.000000 0.000000
vn 0.000000 -1.000000 -0.000000
vn -0.000001 -1.000000 0.000001
vn -0.000002 -1.000000 0.000001
vn -0.000001 -1.000000 -0.000000
vn -0.000001 -1.000000 -0.000000
vn -0.000001 -1.000000 0.000000
vn -0.000001 -1.000000 0.000000
vn -0.000001 -1.000000 0.000001
vn -0.000000 -1.000000 0.000001
vn 0.000000 -1.000000 0.000001
vn 0.000000 -1.000000 0.000001
vn 0.000001 -1.000000 0.000001
vn 0.000001 -1.000000 0.000000
vn 0.000001 -1.000000 0.000000
vn 0.000001 -1.000000 -0.000000
vn 0.771163 0.588762 -0.242210
vn 0.659562 0.591961 -0.463207
vn 0.000000 1.000000 -0.000001
vn 0.482467 0.595994 -0.641886
vn 0.255057 0.599315 -0.758794
vn -0.000000 0.600597 -0.799552
vn -0.255057 0.599313 -0.758795
vn -0.482467 0.595991 -0.641888
vn -0.659566 0.591959 -0.463203
vn -0.771166 0.588757 -0.242215
vn -0.809187 0.587551 -0.000000
vn -0.771166 0.588757 0.242215
vn -0.659566 0.591959 0.463203
vn -0.482466 0.595991 0.641889
vn -0.255057 0.599313 0.758795
vn -0.000000 0.600596 0.799552
vn 0.255057 0.599315 0.758794
vn 0.482467 0.595993 0.641886
vn 0.659561 0.591960 0.463208
vn 0.771163 0.588763 0.242211
vn 0.809187 0.587551 0.000000
vn 0.000000 -1.000000 0.000000
vn 0.000000 -1.000000 0.000000
vn 0.000000 -1.000000 0.000000
vn 0.000000 -1.000000 0.000000
vn 0.000000 -1.000000 0.000000
vn 0.000000 -1.000000 0.000000
vn 0.000000 -1.000000 0.000000
vn 0.000000 -1.000000 0.000000
vn 0.000000 -1.000000 0.000000
vn 0.000000 -1.000000 0.000000
vn 0.000000 -1.000000 0.000000
vn 0.000000 -1.000000 0.000000
vn 0.000000 -1.000000 0.000000
vn 0.000000 -1.000000 0.000000
vn 0.000000 -1.000000 0.000000
vn 0.000000 -1.000000 0.000000
vn 0.000000 -1.000000 -0.000000
vn 0.000000 -1.000000 -0.000000
vn 0.000000 -1.000000 -0.000000
vn 0.000000 -1.000000 -0.000000
vn 0.000000 -1.000000 0.000000
vn 0.000000 -1.000000 0.000000
vn 0.000000 -1.000000 0.000000
vn 0.000000 -1.000000 0.000000
vn 0.000000 -1.000000 -0.000000
vn 0.000000 -1.000000 -0.000000
vn 0.000000 -1.000000 -0.000000
vn 0.000000 -1.000000 -0.000000
vn 0.000000 -1.000000 0.000000
vn 0.000000 -1.000000 0.000000
vn 0.000000 -1.000000 0.000000
vn 0.000000 -1.000000 0.000000
vn 0.000000 -1.000000 -0.000000
vn 0.000000 -1.000000 -0.000000
vn 0.000000 -1.000000 -0.000000
vn 0.000000 -1.000000 -0.000000
vn 0.000000 -1.000000 0.000000
vn 0.000000 -1.000000 0.000000
vn 0.000000 -1.000000 0.000000
vn 0.000000 -1.000000 0.000000
vn 0.000000 -1.000000 0.000000
vn 0.000000 -1.000000 0.000000
vn 0.000000 -1.000000 0.000000
vn 0.000000 -1.000000 0.000000
vn 0.000000 -1.000000 0.000000
vn 0.000000 -1.000000 0.000000
vn 0.000000 -1.000000 0.000000
vn 0.000000 -1.000000 0.000000
vn 0.000000 -1.000000 0.000000
vn 0.000000 -1.000000 0.000000
vn 0.000000 -1.000000 0.000000
vn 0.000000 -1.000000 0.000000
vn 0.000000 -1.000000 0.000000
vn 0.000000 -1.000000 0.000000
vn 0.000000 -1.000000 0.000000
vn 0.000000 -1.000000 0.000000
vn 0.000000 -1.000000 -0.000000
vn 0.000000 -1.000000 -0.000000
vn 0.000000 -1.000000 -0.000000
vn 0.000000 -1.000000 -0.000000
vn 0.000000 -1.000000 -0.000000
vn 0.000000 -1.000000 -0.000000
vn 0.000000 -1.000000 -0.000000
vn 0.000000 -1.000000 -0.000000
vn 0.000000 -1.000000 -0.000000
vn 0.000000 -1.000000 -0.000000
vn 0.000000 -1.000000 -0.000000
vn 0.000000 -1.000000 -0.000000
vn 0.000000 -1.000000 0.000000
vn 0.000000 -1.000000 0.000000
vn 0.000000 -1.000000 0.000000
vn 0.000000 -1.000000 0.000000
vn 0.000000 -1.000000 0.000000
vn 0.000000 -1.000000 0.000000
vn 0.000000 -1.000000 0.000000
vn 0.000000 -1.000000 0.000000
vn 0.000000 -1.000000 0.000000
vn 0.000000 -1.000000 0.000000
vn 0.000000 -1.000000 0.000000
vn 0.000000 -1.000000 0.000000
vn 0.848948 0.456281 -0.266637
vn 0.726929 0.459290 -0.510517
vn 0.726929 0.459290 -0.510517
vn 0.848948 0.456281 -0.266637
vn 0.532529 0.463100 -0.708486
vn 0.532529 0.463100 -0.708485
vn 0.281866 0.466249 -0.838548
vn 0.281865 0.466249 -0.838549
vn -0.000000 0.467468 -0.884010
vn -0.000000 0.467468 -0.884010
vn -0.281866 0.466248 -0.838549
vn -0.281866 0.466248 -0.838549
vn -0.532527 0.463097 -0.708489
vn -0.532528 0.463097 -0.708488
vn -0.726931 0.459288 -0.510515
vn -0.726931 0.459288 -0.510515
vn -0.848948 0.456276 -0.266645
vn -0.848948 0.456276 -0.266646
vn -0.890418 0.455144 0.000000
vn -0.890418 0.455144 -0.000000
vn -0.848948 0.456276 0.266645
vn -0.848948 0.456276 0.266646
vn -0.726931 0.459288 0.510515
vn -0.726931 0.459288 0.510514
vn -0.532527 0.463097 0.708489
vn -0.532528 0.463097 0.708488
vn -0.281866 0.466248 0.838549
vn -0.281866 0.466248 0.838549
vn 0.000001 0.467468 0.884010
vn 0.000001 0.467468 0.884010
vn 0.281866 0.466249 0.838548
vn 0.281865 0.466249 0.838549
vn 0.532528 0.463100 0.708486
vn 0.532528 0.463100 0.708486
vn 0.726928 0.459290 0.510518
vn 0.726928 0.459290 0.510518
vn 0.848948 0.456281 0.266638
vn 0.848948 0.456281 0.266638
vn 0.890418 0.455143 0.000000
vn 0.890418 0.455143 -0.000000
vn 0.000000 -1.000000 0.000001
vn 0.000000 -1.000000 0.000001
vn 0.000000 -1.000000 0.000001
vn 0.000000 -1.000000 0.000001
vn 0.000000 -1.000000 -0.000001
vn 0.000000 -1.000000 -0.000001
vn 0.000000 -1.000000 -0.000001
vn 0.000000 -1.000000 -0.000001
vn 0.000000 -1.000000 0.000000
vn 0.000000 -1.000000 0.000000
vn 0.000000 -1.000000 0.000000
vn 0.000000 -1.000000 0.000000
vn 0.000000 -1.000000 0.000000
vn 0.000000 -1.000000 0.000000
vn 0.000000 -1.000000 0.000000
vn 0.000000 -1.000000 0.000000
vn 0.000000 -1.000000 0.000000
vn 0.000000 -1.000000 0.000000
vn 0.000000 -1.000000 0.000000
vn 0.000000 -1.000000 0.000000
vn 0.000000 -1.000000 0.000000
vn 0.000000 -1.000000 0.000000
vn 0.000000 -1.000000 0.000000
vn 0.000000 -1.000000 0.000000
vn 0.000000 -1.000000 -0.000000
vn 0.000000 -1.000000 -0.000000
vn 0.000000 -1.000000 -0.000000
vn 0.000000 -1.000000 -0.000000
vn 0.000000 -1.000000 0.000000
vn 0.000000 -1.000000 0.000000
vn 0.000000 -1.000000 0.000000
vn 0.000000 -1.000000 0.000000
vn 0.000000 -1.000000 0.000000
vn 0.000000 -1.000000 0.000000
vn 0.000000 -1.000000 0.000000
vn 0.000000 -1.000000 0.000000
vn 0.000000 -1.000000 0.000000
vn 0.000000 -1.000000 0.000000
vn 0.000000 -1.000000 0.000000
vn 0.000000 -1.000000 0.000000
vn 0.000000 -1.000000 0.000000
vn 0.000000 -1.000000 0.000000
vn 0.000000 -1.000000 0.000000
vn 0.000000 -1.000000 0.000000
vn 0.000000 -1.000000 0.000000
vn 0.000000 -1.000000 0.000000
vn 0.000000 -1.000000 0.000000
vn 0.000000 -1.000000 0.000000
vn 0.000000 -1.000000 0.000000
vn 0.000000 -1.000000 0.000000
vn 0.000000 -1.000000 0.000000
vn 0.000000 -1.000000 0.000000
vn 0.000000 -1.000000 0.000000
vn 0.000000 -1.000000 0.000000
vn 0.000000 -1.000000 0.000000
vn 0.000000 -1.000000 0.000000
vn 0.000000 -1.000000 -0.000000
vn 0.000000 -1.000000 -0.000000
vn 0.000000 -1.000000 -0.000000
vn 0.000000 -1.000000 -0.000000
vn 0.000000 -1.000000 0.000000
vn 0.000000 -1.000000 0.000000
vn 0.000000 -1.000000 0.000000
vn 0.000000 -1.000000 0.000000
vn 0.000000 -1.000000 0.000000
vn 0.000000 -1.000000 0.000000
vn 0.000000 -1.000000 0.000000
vn 0.000000 -1.000000 0.000000
vn 0.000000 -1.000000 0.000000
vn 0.000000 -1.000000 0.000000
vn 0.000000 -1.000000 0.000000
vn 0.000000 -1.000000 0.000000
vn 0.000000 -1.000000 0.000000
vn 0.000000 -1.000000 0.000000
vn 0.000000 -1.000000 0.000000
vn 0.000000 -1.000000 0.000000
vn 0.000000 -1.000000 0.000000
vn 0.000000 -1.000000 0.000000
vn 0.000000 -1.000000 0.000000
vn 0.000000 -1.000000 0.000000
vn 0.771329 0.588524 -0.242260
vn 0.659705 0.591723 -0.463307
vn 0.482574 0.595756 -0.642026
vn 0.255114 0.599077 -0.758962
vn -0.000000 0.600359 -0.799730
vn -0.255114 0.599076 -0.758963
vn -0.482573 0.595753 -0.642030
vn -0.659708 0.591721 -0.463305
vn -0.771332 0.588519 -0.242266
vn -0.809360 0.587313 -0.000000
vn -0.771332 0.588519 0.242266
vn -0.659708 0.591722 0.463304
vn -0.482572 0.595753 0.642030
vn -0.255114 0.599075 0.758963
vn 0.000000 0.600359 0.799731
vn 0.255114 0.599077 0.758962
vn 0.482574 0.595756 0.642026
vn 0.659705 0.591722 0.463308
vn 0.771329 0.588525 0.242261
vn 0.809360 0.587313 0.000000
s 1
g pCylinder1
usemtl blinn1SG
f 1/1/1 2/2/2 22/3/3 21/4/4
f 2/2/2 3/5/5 23/6/6 22/3/3
f 3/5/5 4/7/7 24/8/8 23/6/6
f 4/7/7 5/9/9 25/10/10 24/8/8
f 5/9/9 6/11/11 26/12/12 25/10/10
f 6/11/11 7/13/13 27/14/14 26/12/12
f 7/13/13 8/19/15 28/20/16 27/14/14
f 8/15/15 9/16/17 29/17/18 28/18/16
f 9/21/17 10/22/19 30/23/20 29/24/18
f 10/22/19 11/25/21 31/26/22 30/23/20
f 11/25/21 12/27/23 32/28/24 31/26/22
f 12/27/23 13/151/25 33/152/26 32/28/24
f 13/151/25 14/153/27 34/154/28 33/152/26
f 14/153/27 15/155/29 35/156/30 34/154/28
f 15/155/29 16/157/31 36/158/32 35/156/30
f 16/157/31 17/179/33 37/180/34 36/158/32
f 17/179/33 18/181/35 38/182/36 37/180/34
f 18/181/35 19/183/37 39/184/38 38/182/36
f 19/183/37 20/185/39 40/186/40 39/184/38
f 20/185/39 1/1/1 21/4/4 40/186/40
s 2
f 2/57/41 1/58/42 41/59/43
f 3/61/44 2/57/41 41/59/43
f 4/63/45 3/61/44 41/59/43
f 5/65/46 4/63/45 41/59/43
f 6/67/47 5/65/46 41/59/43
f 7/69/48 6/67/47 41/59/43
f 8/71/49 7/69/48 41/59/43
f 9/73/50 8/71/49 41/59/43
f 10/75/51 9/73/50 41/59/43
f 11/77/52 10/75/51 41/59/43
f 12/76/53 11/77/52 41/59/43
f 13/74/54 12/76/53 41/59/43
f 14/72/55 13/74/54 41/59/43
f 15/70/56 14/72/55 41/59/43
f 16/68/57 15/70/56 41/59/43
f 17/66/58 16/68/57 41/59/43
f 18/64/59 17/66/58 41/59/43
f 19/62/60 18/64/59 41/59/43
f 20/60/61 19/62/60 41/59/43
f 1/58/42 20/60/61 41/59/43
s 3
f 102/78/62 103/79/63 104/80/64
f 103/79/63 105/81/65 104/80/64
f 105/81/65 106/82/66 104/80/64
f 106/82/66 107/83/67 104/80/64
f 107/83/67 108/84/68 104/80/64
f 108/84/68 109/85/69 104/80/64
f 109/85/69 110/86/70 104/80/64
f 110/86/70 111/87/71 104/80/64
f 111/87/71 112/88/72 104/80/64
f 112/88/72 113/89/73 104/80/64
f 113/89/73 114/90/74 104/80/64
f 114/90/74 115/91/75 104/80/64
f 115/91/75 116/92/76 104/80/64
f 116/92/76 117/93/77 104/80/64
f 117/93/77 118/94/78 104/80/64
f 118/94/78 119/95/79 104/80/64
f 119/95/79 120/96/80 104/80/64
f 120/96/80 121/97/81 104/80/64
f 121/97/81 122/98/82 104/80/64
f 122/98/82 102/78/62 104/80/64
s off
f 21/29/83 22/30/84 43/31/85 42/32/86
f 22/30/87 23/33/88 44/34/89 43/31/90
f 23/33/91 24/35/92 45/36/93 44/34/94
f 24/35/95 25/37/96 46/38/97 45/36/98
f 25/37/99 26/39/100 47/40/101 46/38/102
f 26/39/103 27/41/104 48/42/105 47/40/106
f 27/41/107 28/43/108 49/44/109 48/42/110
f 28/43/111 29/45/112 50/46/113 49/44/114
f 29/45/115 30/47/116 51/48/117 50/46/118
f 30/47/119 31/49/120 52/50/121 51/48/122
f 31/49/123 32/51/124 53/52/125 52/50/126
f 32/51/127 33/53/128 54/54/129 53/52/130
f 33/53/131 34/55/132 55/56/133 54/54/134
f 34/55/135 35/119/136 56/120/137 55/56/138
f 35/119/139 36/121/140 57/122/141 56/120/142
f 36/121/143 37/123/144 58/124/145 57/122/146
f 37/123/147 38/125/148 59/126/149 58/124/150
f 38/125/151 39/127/152 60/128/153 59/126/154
f 39/127/155 40/129/156 61/130/157 60/128/158
f 40/129/159 21/29/160 42/32/161 61/130/162
s 4
f 42/32/163 43/31/164 63/131/165 62/132/166
f 43/31/164 44/34/167 64/133/168 63/131/165
f 44/34/167 45/36/169 65/134/170 64/133/168
f 45/36/169 46/38/171 66/135/172 65/134/170
f 46/38/171 47/40/173 67/136/174 66/135/172
f 47/40/173 48/42/175 68/137/176 67/136/174
f 48/42/175 49/44/177 69/138/178 68/137/176
f 49/44/177 50/46/179 70/139/180 69/138/178
f 50/46/179 51/48/181 71/140/182 70/139/180
f 51/48/181 52/50/183 72/141/184 71/140/182
f 52/50/183 53/52/185 73/142/186 72/141/184
f 53/52/185 54/54/187 74/143/188 73/142/186
f 54/54/187 55/56/189 75/144/190 74/143/188
f 55/56/189 56/120/191 76/145/192 75/144/190
f 56/120/191 57/122/193 77/146/194 76/145/192
f 57/122/193 58/124/195 78/147/196 77/146/194
f 58/124/195 59/126/197 79/148/198 78/147/196
f 59/126/197 60/128/199 80/149/200 79/148/198
f 60/128/199 61/130/201 81/150/202 80/149/200
f 61/130/201 42/32/163 62/132/166 81/150/202
s off
f 62/99/203 63/100/204 83/101/205 82/102/206
f 63/100/207 64/103/208 84/104/209 83/101/210
f 64/103/211 65/105/212 85/106/213 84/104/214
f 65/105/215 66/107/216 86/108/217 85/106/218
f 66/107/219 67/109/220 87/110/221 86/108/222
f 67/109/223 68/111/224 88/112/225 87/110/226
f 68/111/227 69/113/228 89/114/229 88/112/230
f 69/113/231 70/115/232 90/116/233 89/114/234
f 70/115/235 71/117/236 91/118/237 90/116/238
f 71/117/239 72/159/240 92/160/241 91/118/242
f 72/159/243 73/161/244 93/162/245 92/160/246
f 73/161/247 74/163/248 94/164/249 93/162/250
f 74/163/251 75/165/252 95/166/253 94/164/254
f 75/165/255 76/167/256 96/168/257 95/166/258
f 76/167/259 77/169/260 97/170/261 96/168/262
f 77/169/263 78/171/264 98/172/265 97/170/266
f 78/171/267 79/173/268 99/174/269 98/172/270
f 79/173/271 80/175/272 100/176/273 99/174/274
f 80/175/275 81/177/276 101/178/277 100/176/278
f 81/177/279 62/99/280 82/102/281 101/178/282
s 3
f 82/102/283 83/101/284 103/79/63 102/78/62
f 83/101/284 84/104/285 105/81/65 103/79/63
f 84/104/285 85/106/286 106/82/66 105/81/65
f 85/106/286 86/108/287 107/83/67 106/82/66
f 86/108/287 87/110/288 108/84/68 107/83/67
f 87/110/288 88/112/289 109/85/69 108/84/68
f 88/112/289 89/114/290 110/86/70 109/85/69
f 89/114/290 90/116/291 111/87/71 110/86/70
f 90/116/291 91/118/292 112/88/72 111/87/71
f 91/118/292 92/160/293 113/89/73 112/88/72
f 92/160/293 93/162/294 114/90/74 113/89/73
f 93/162/294 94/164/295 115/91/75 114/90/74
f 94/164/295 95/166/296 116/92/76 115/91/75
f 95/166/296 96/168/297 117/93/77 116/92/76
f 96/168/297 97/170/298 118/94/78 117/93/77
f 97/170/298 98/172/299 119/95/79 118/94/78
f 98/172/299 99/174/300 120/96/80 119/95/79
f 99/174/300 100/176/301 121/97/81 120/96/80
f 100/176/301 101/178/302 122/98/82 121/97/81
f 101/178/302 82/102/283 102/78/62 122/98/82
